<?xml version="1.0" encoding="UTF-8" standalone="no"?>
<!DOCTYPE svg PUBLIC "-//W3C//DTD SVG 1.1//EN" "http://www.w3.org/Graphics/SVG/1.1/DTD/svg11.dtd">
<svg width="100%" height="100%" viewBox="0 0 294 52" version="1.1" xmlns="http://www.w3.org/2000/svg" xmlns:xlink="http://www.w3.org/1999/xlink" xml:space="preserve" xmlns:serif="http://www.serif.com/" style="fill-rule:evenodd;clip-rule:evenodd;stroke-linejoin:round;stroke-miterlimit:2;">
    <g transform="matrix(1,0,0,1,60,-1.318)">
        <path d="M26.934,1.318L35.256,18.182L53.867,20.887L40.4,34.013L43.579,52.549L26.934,43.798L10.288,52.549L13.467,34.013L0,20.887L18.611,18.182L26.934,1.318Z" style="fill:rgb(239,206,74);fill-rule:nonzero;"/>
    </g>
    <g transform="matrix(1,0,0,1,0,-1.318)">
        <path d="M26.934,1.318L35.256,18.182L53.867,20.887L40.4,34.013L43.579,52.549L26.934,43.798L10.288,52.549L13.467,34.013L0,20.887L18.611,18.182L26.934,1.318Z" style="fill:rgb(239,206,74);fill-rule:nonzero;"/>
    </g>
    <g transform="matrix(1,0,0,1,120,-1.318)">
        <path d="M26.934,1.318L35.256,18.182L53.867,20.887L40.4,34.013L43.579,52.549L26.934,43.798L10.288,52.549L13.467,34.013L0,20.887L18.611,18.182L26.934,1.318Z" style="fill:rgb(239,206,74);fill-rule:nonzero;"/>
    </g>
    <g transform="matrix(1,0,0,1,180,-1.318)">
        <path d="M26.934,1.318L35.256,18.182L53.867,20.887L40.4,34.013L43.579,52.549L26.934,43.798L10.288,52.549L13.467,34.013L0,20.887L18.611,18.182L26.934,1.318Z" style="fill:rgb(239,206,74);fill-rule:nonzero;"/>
    </g>
    <g transform="matrix(1,0,0,1,240,-1.318)">
        <path d="M26.934,1.318L35.256,18.182L53.867,20.887L40.4,34.013L43.579,52.549L26.934,43.798L10.288,52.549L13.467,34.013L0,20.887L18.611,18.182L26.934,1.318Z" style="fill:rgb(239,206,74);fill-rule:nonzero;"/>
    </g>
</svg>
