<?xml version="1.0" encoding="UTF-8" standalone="no"?>
<!DOCTYPE svg PUBLIC "-//W3C//DTD SVG 1.1//EN" "http://www.w3.org/Graphics/SVG/1.1/DTD/svg11.dtd">
<svg width="100%" height="100%" viewBox="0 0 274 97" version="1.1" xmlns="http://www.w3.org/2000/svg" xmlns:xlink="http://www.w3.org/1999/xlink" xml:space="preserve" xmlns:serif="http://www.serif.com/" style="fill-rule:evenodd;clip-rule:evenodd;stroke-linejoin:round;stroke-miterlimit:2;">
    <g transform="matrix(0.687044,0,0,0.687044,46.858,13.7256)">
        <path d="M26.934,1.318L35.256,18.182L53.867,20.887L40.4,34.013L43.579,52.549L26.934,43.798L10.288,52.549L13.467,34.013L0,20.887L18.611,18.182L26.934,1.318Z" style="fill:rgb(201,165,20);fill-rule:nonzero;"/>
    </g>
    <g transform="matrix(0.59784,0,0,0.59784,90.1106,12.122)">
        <path d="M26.934,1.318L35.256,18.182L53.867,20.887L40.4,34.013L43.579,52.549L26.934,43.798L10.288,52.549L13.467,34.013L0,20.887L18.611,18.182L26.934,1.318Z" style="fill:rgb(201,165,20);fill-rule:nonzero;"/>
    </g>
    <g transform="matrix(0.580944,0,0,0.580944,153.631,12.3169)">
        <path d="M26.934,1.318L35.256,18.182L53.867,20.887L40.4,34.013L43.579,52.549L26.934,43.798L10.288,52.549L13.467,34.013L0,20.887L18.611,18.182L26.934,1.318Z" style="fill:rgb(201,165,20);fill-rule:nonzero;"/>
    </g>
    <g transform="matrix(0.477763,0,0,0.477763,125.025,12.1279)">
        <path d="M26.934,1.318L35.256,18.182L53.867,20.887L40.4,34.013L43.579,52.549L26.934,43.798L10.288,52.549L13.467,34.013L0,20.887L18.611,18.182L26.934,1.318Z" style="fill:rgb(201,165,20);fill-rule:nonzero;"/>
    </g>
    <g transform="matrix(0.693486,0,0,0.693486,190,13.8987)">
        <path d="M26.934,1.318L35.256,18.182L53.867,20.887L40.4,34.013L43.579,52.549L26.934,43.798L10.288,52.549L13.467,34.013L0,20.887L18.611,18.182L26.934,1.318Z" style="fill:rgb(201,165,20);fill-rule:nonzero;"/>
    </g>
    <g transform="matrix(1.04796,0,0,1.04796,50,31.1615)">
        <path d="M26.934,1.318L35.256,18.182L53.867,20.887L40.4,34.013L43.579,52.549L26.934,43.798L10.288,52.549L13.467,34.013L0,20.887L18.611,18.182L26.934,1.318Z" style="fill:rgb(239,206,74);fill-rule:nonzero;"/>
    </g>
    <g transform="matrix(0.862347,0,0,0.862347,7.41497,20.9155)">
        <path d="M26.934,1.318L35.256,18.182L53.867,20.887L40.4,34.013L43.579,52.549L26.934,43.798L10.288,52.549L13.467,34.013L0,20.887L18.611,18.182L26.934,1.318Z" style="fill:rgb(239,206,74);fill-rule:nonzero;"/>
    </g>
    <g transform="matrix(1.1284,0,0,1.1284,107.66,32.935)">
        <path d="M26.934,1.318L35.256,18.182L53.867,20.887L40.4,34.013L43.579,52.549L26.934,43.798L10.288,52.549L13.467,34.013L0,20.887L18.611,18.182L26.934,1.318Z" style="fill:rgb(239,206,74);fill-rule:nonzero;"/>
    </g>
    <g transform="matrix(1.06138,0,0,1.06138,166.693,30.4563)">
        <path d="M26.934,1.318L35.256,18.182L53.867,20.887L40.4,34.013L43.579,52.549L26.934,43.798L10.288,52.549L13.467,34.013L0,20.887L18.611,18.182L26.934,1.318Z" style="fill:rgb(239,206,74);fill-rule:nonzero;"/>
    </g>
    <g transform="matrix(0.855867,0,0,0.855867,220,21.2561)">
        <path d="M26.934,1.318L35.256,18.182L53.867,20.887L40.4,34.013L43.579,52.549L26.934,43.798L10.288,52.549L13.467,34.013L0,20.887L18.611,18.182L26.934,1.318Z" style="fill:rgb(239,206,74);fill-rule:nonzero;"/>
    </g>
</svg>
